<?xml version="1.0" encoding="UTF-8" standalone="no"?>
<!-- Created with Inkscape (http://www.inkscape.org/) -->

<svg
   width="85.860909mm"
   height="55.375607mm"
   viewBox="0 0 85.860909 55.375607"
   version="1.1"
   id="svg5"
   inkscape:version="1.1.2 (b8e25be833, 2022-02-05)"
   sodipodi:docname="logoMaNails_black.svg"
   xmlns:inkscape="http://www.inkscape.org/namespaces/inkscape"
   xmlns:sodipodi="http://sodipodi.sourceforge.net/DTD/sodipodi-0.dtd"
   xmlns="http://www.w3.org/2000/svg"
   xmlns:svg="http://www.w3.org/2000/svg">
  <sodipodi:namedview
     id="namedview7"
     pagecolor="#ffffff"
     bordercolor="#666666"
     borderopacity="1.0"
     inkscape:pageshadow="2"
     inkscape:pageopacity="0.0"
     inkscape:pagecheckerboard="0"
     inkscape:document-units="mm"
     showgrid="false"
     fit-margin-top="0"
     fit-margin-left="0"
     fit-margin-right="0"
     fit-margin-bottom="0"
     inkscape:zoom="1.5126683"
     inkscape:cx="85.610306"
     inkscape:cy="136.18319"
     inkscape:window-width="1920"
     inkscape:window-height="1009"
     inkscape:window-x="-8"
     inkscape:window-y="-8"
     inkscape:window-maximized="1"
     inkscape:current-layer="layer1" />
  <defs
     id="defs2" />
  <g
     inkscape:label="Calque 1"
     inkscape:groupmode="layer"
     id="layer1"
     transform="translate(-40.322603,-43.710334)">
    <path
       id="rect846"
       style="color:#000000;opacity:0.998235;fill:#000000;stroke-width:1;-inkscape-stroke:none"
       d="m 40.322603,50.307006 v 1.999877 46.779058 H 126.18351 V 50.307006 h -21.24986 v 3.999757 h 17.25011 V 95.086184 H 44.322359 V 54.306763 h 15.134476 v -3.999757 z" />
    <g
       aria-label="Ma'
NAILS"
       transform="matrix(2.5513436,0,0,2.0152355,-71.841889,8.5168513)"
       id="text1796"
       style="font-size:11.9081px;line-height:1.25;font-family:'Permanent Marker';-inkscape-font-specification:'Permanent Marker';text-align:center;text-anchor:middle;display:inline;stroke-width:0.297703">
      <path
         d="m 56.046061,25.749381 h -1.348964 q -0.04652,0 -0.04652,-0.05815 l 0.02326,-8.181004 q 0,-0.04652 0.04652,-0.04652 h 1.453625 q 0.04652,0 0.0814,0.04652 l 1.087312,1.569915 1.081497,-1.569915 q 0.03489,-0.04652 0.08722,-0.04652 h 1.45944 q 0.05233,0 0.05233,0.04652 l 0.02326,8.181004 q 0,0.05815 -0.04652,0.05815 h -1.348964 q -0.04652,0 -0.04652,-0.05815 l -0.01163,-6.076155 -1.250118,1.814125 -1.238489,-1.814125 -0.01163,6.076155 q 0,0.05815 -0.04652,0.05815 z"
         style="font-family:Koulen;-inkscape-font-specification:Koulen"
         id="path7162" />
      <path
         d="m 60.639518,25.691236 1.476883,-8.181004 q 0.01163,-0.04652 0.05814,-0.04652 h 1.726907 q 0.04652,0 0.05814,0.04652 l 1.418739,8.181004 q 0.0058,0.05815 -0.04652,0.05815 h -1.319892 q -0.05815,0 -0.06396,-0.05815 L 63.820036,24.819061 H 62.19779 l -0.127919,0.872175 q -0.0058,0.05815 -0.05814,0.05815 h -1.325706 q -0.04652,0 -0.04652,-0.05815 z m 2.331615,-5.48889 -0.534934,3.343339 h 1.145457 l -0.488419,-3.343339 -0.06977,-0.441902 z"
         style="font-family:Koulen;-inkscape-font-specification:Koulen"
         id="path7164" />
      <path
         d="m 66.901736,20.260491 h -1.168715 q -0.04652,0 -0.04652,-0.05814 l 0.191879,-2.692114 q 0.01163,-0.04652 0.05814,-0.04652 h 1.180344 q 0.05815,0 0.04652,0.04652 l -0.226766,2.715372 q 0,0.03489 -0.03489,0.03489 z"
         style="font-family:Koulen;-inkscape-font-specification:Koulen"
         id="path7166" />
      <path
         d="m 51.196766,36.836665 h -1.191973 q -0.09303,0 -0.09303,-0.0814 l -0.01163,-8.11123 q 0,-0.09303 0.09303,-0.09303 h 1.075683 l 2.011818,4.692303 -0.05815,-4.599271 q 0,-0.09303 0.104661,-0.09303 h 1.180344 q 0.06977,0 0.06977,0.09303 l 0.01163,8.122859 q 0,0.06977 -0.05814,0.06977 h -1.04661 l -2.064149,-4.384134 0.08722,4.291102 q 0,0.09303 -0.110476,0.09303 z"
         style="font-family:Koulen;-inkscape-font-specification:Koulen"
         id="path7168" />
      <path
         d="m 55.022709,36.77852 1.476883,-8.181004 q 0.01163,-0.04652 0.05814,-0.04652 h 1.726907 q 0.04652,0 0.05815,0.04652 l 1.418739,8.181004 q 0.0058,0.05815 -0.04652,0.05815 h -1.319892 q -0.05814,0 -0.06396,-0.05815 l -0.127919,-0.872175 h -1.622246 l -0.127919,0.872175 q -0.0058,0.05815 -0.05815,0.05815 h -1.325706 q -0.04652,0 -0.04652,-0.05815 z m 2.331615,-5.48889 -0.534934,3.343339 h 1.145457 l -0.488418,-3.343339 -0.06977,-0.441902 z"
         style="font-family:Koulen;-inkscape-font-specification:Koulen"
         id="path7170" />
      <path
         d="m 61.912894,36.836665 h -1.348965 q -0.05814,0 -0.05814,-0.05815 l 0.01163,-8.181004 q 0,-0.04652 0.04652,-0.04652 h 1.337336 q 0.04652,0 0.04652,0.04652 l 0.01163,8.181004 q 0,0.05815 -0.04652,0.05815 z"
         style="font-family:Koulen;-inkscape-font-specification:Koulen"
         id="path7172" />
      <path
         d="m 66.901736,36.836665 h -3.8492 q -0.04652,0 -0.04652,-0.05815 l 0.01163,-8.169375 q 0,-0.05814 0.05814,-0.05814 h 1.325706 q 0.05815,0 0.05815,0.05814 l -0.01163,6.762266 h 2.45372 q 0.05815,0 0.05815,0.05814 v 1.348964 q 0,0.05815 -0.05815,0.05815 z"
         style="font-family:Koulen;-inkscape-font-specification:Koulen"
         id="path7174" />
      <path
         d="m 69.756657,36.952955 q -0.63378,0 -1.168714,-0.325612 -0.52912,-0.325612 -0.848918,-0.866361 -0.313983,-0.546563 -0.313983,-1.197787 v -0.546563 q 0,-0.06396 0.05814,-0.06396 h 1.337336 q 0.04652,0 0.04652,0.06396 v 0.546563 q 0,0.389572 0.261652,0.674482 0.261653,0.279096 0.627966,0.279096 0.372129,0 0.633781,-0.28491 0.261653,-0.290725 0.261653,-0.668668 0,-0.436088 -0.569821,-0.7617 -0.09303,-0.05814 -0.24421,-0.139548 -0.145362,-0.08722 -0.34887,-0.197693 -0.203507,-0.110476 -0.395386,-0.215137 -0.191878,-0.110475 -0.372128,-0.209322 -0.651224,-0.383757 -0.971022,-0.959392 -0.313983,-0.581451 -0.313983,-1.302449 0,-0.662853 0.325612,-1.197787 0.325612,-0.52912 0.848918,-0.837289 0.529119,-0.313983 1.145456,-0.313983 0.633781,0 1.162901,0.313983 0.52912,0.319798 0.843103,0.848918 0.319797,0.529119 0.319797,1.186158 v 0.976836 q 0,0.04652 -0.04652,0.04652 h -1.337335 q -0.04652,0 -0.04652,-0.04652 l -0.01163,-0.976836 q 0,-0.418644 -0.261653,-0.680297 -0.261652,-0.261652 -0.622152,-0.261652 -0.366313,0 -0.627966,0.279096 -0.261652,0.279096 -0.261652,0.662853 0,0.389572 0.162806,0.651224 0.16862,0.261653 0.610522,0.500048 0.04652,0.02326 0.215137,0.11629 0.168621,0.09303 0.372128,0.209322 0.209322,0.110475 0.377943,0.203507 0.16862,0.08722 0.203507,0.104661 0.59308,0.331427 0.936135,0.814031 0.34887,0.482603 0.34887,1.186158 0,0.680297 -0.313983,1.221045 -0.319797,0.540749 -0.848917,0.854732 -0.52912,0.313983 -1.17453,0.313983 z"
         style="font-family:Koulen;-inkscape-font-specification:Koulen"
         id="path7176" />
    </g>
  </g>
</svg>
